<?xml version="1.0" encoding="UTF-8"?>
<svg id="Calque_1" data-name="Calque 1" xmlns="http://www.w3.org/2000/svg" viewBox="0 0 197.9 225">
  <defs><style>.cls-1{fill:#547c36;}.cls-2{fill:#fff;}.cls-3{fill:#5e8f3f;}.cls-4{fill:#83a63e;}</style></defs>
  <g id="zdufDZ"><g>
    <path class="cls-1" d="M153.46,219.55l-23.28,5.45h-1.73l9.43-198.14c.94.12,2.22.61,3.13,1.53l12.3,12.4.15,178.76Z"/>
    <path class="cls-2" d="M65.4,110.64c-1.39,7.73,10.04,13.52,18.02,19.52-.04.5.48,1.39.87,1.69,17.05,13.17,13.01,41.95.21,51.26-.5.37-.74,1.29-.99,1.86-16.82,11.15-39.16,6.72-53.14-7.46l5.86-19.51c9.15,7.17,21.9,13.72,28,7.22,2.33-2.5,3-6.33,1.75-9.86-3.42-9.66-18.87-14.34-22.76-27.25-4.49-14.93,1-31.44,13.06-41.18,8.01-6.47,17.58-9.29,27.41-9.85,6.76-.35,13.76.21,21.08,3.15l-8.66,25.78c-4.78-2.17-8.51-3.39-12.41-3.95-8.81-.9-16.99,1.3-18.3,8.58Z"/>
    <path class="cls-4" d="M128.16,28.85c-2.41-7.63-6.14-13.83-12-18.5-3.76-3-8.02-2.86-12.34-4.27-2.92-.95-5.33-5.05-8.37-6.08h-9.69c-.75.87-1.5.99-2.37,1.21-20.89,5.31-33.24,31.56-38.64,53.27l-23.33,7.52c-1.92.62-3.62,1.89-3.93,4.33L0,201.02l82.24,15.33,40.34,7.55c.99.09,1.58.6,1.87,1.1h4l9.43-198.14c-3.05-.41-5.88.81-9.72,1.99ZM99.98,15.92c2.26,7.09,2.94,13.85,2.59,20.9l-19.47,6.05c-.83.26-1.55.39-2.64.05l3.71-10.7c3.92-6.9,8.35-13.4,15.81-16.3ZM82.48,9.87c.38-.09.79-.59,1.03-.92,3.58-.81,7.12-2.18,11.58.13-4.78,2.23-7.56,4.95-10.81,7.96-.02.75-.51,1.31-1.01,1.85-6.54,7.21-9.6,17.04-11.81,27.38l-17.82,5.55c4.16-15.26,15.97-39.06,28.84-41.95ZM96.11,106.01c-4.78-2.17-8.51-3.39-12.41-3.95-8.81-.9-16.99,1.3-18.3,8.58-1.39,7.73,10.04,13.52,18.02,19.52-.04.5.48,1.39.87,1.69,17.05,13.17,13.01,41.95.21,51.26-.5.37-.74,1.29-.99,1.86-16.82,11.15-39.16,6.72-53.14-7.46l5.86-19.51c9.15,7.17,21.9,13.72,28,7.22,2.33-2.5,3-6.33,1.75-9.86-3.42-9.66-18.87-14.34-22.76-27.25-4.49-14.93,1-31.44,13.06-41.18,8.01-6.47,17.58-9.29,27.41-9.85,6.76-.35,13.76.21,21.08,3.15l-8.66,25.78ZM110.37,34.36c.08-7.15-.55-12.84-2.47-19.52,3.71.12,5.53,2.15,7.41,4.26,2.57,3.52,4.21,6.69,6.1,11.81l-11.04,3.45Z"/>
    <path class="cls-3" d="M197.9,210.02l-44.44,9.53-.15-178.76c6.41.24,12.83.58,19.79,1.7l24.8,167.53Z"/>
  </g></g>
</svg>
